<svg width="447" height="204" viewBox="0 0 447 204" fill="none" xmlns="http://www.w3.org/2000/svg">
<path d="M319.667 2.30469H121.846V206.378H319.667V2.30469Z" fill="#FDF4E8"/>
<path d="M318.072 79.6167H310.031V61.7643C309.907 61.6926 309.782 61.6225 309.659 61.5508H307.262V61.5426H293.314V61.5508H293.303V64.2271H293.314V66.0673H293.303V68.7419H293.314V70.5886H293.303V73.265H293.314V73.2747L291.837 73.265V59.2656H276.187V61.039H276.179V63.7137H276.187V66.0656H276.179V68.7403H276.187V70.587H276.179V73.2633H276.187V74.9715H276.179V77.6478H276.187V79.356H276.179V82.0323H276.187V83.641H276.179V85.341H276.187V85.5268H258.547V100.841H251.957V104.699H244.851V98.056H232.068V80.0063H230.069V78.2085H229.782V80.0063H228.125V80.003H219.834V78.2085H219.547V80.003H217.387V89.08L206.649 89.0295V94.6315H197.546V59.9991H170.574V97.1008H162.337V77.0382H135.366V206.835L319.667 206.136L318.07 79.6135L318.072 79.6167Z" fill="#F0DBC2"/>
<path d="M135.393 100.672V112.836V130.935V205.948H121.846V130.935V112.836V100.672H135.393Z" fill="#9AC0EF"/>
<path d="M262.328 78.3828H261.832V85.6571H262.328V78.3828Z" fill="#F0DBC2"/>
<path d="M270.977 72.1406H270.204V86.228H270.977V72.1406Z" fill="#F0DBC2"/>
<path d="M172.689 57.4062H172.366V59.9994H172.689V57.4062Z" fill="#F0DBC2"/>
<path d="M179.516 57.4062H179.193V59.9994H179.516V57.4062Z" fill="#F0DBC2"/>
<path d="M195.167 57.4062H194.844V59.9994H195.167V57.4062Z" fill="#F0DBC2"/>
<path d="M277.99 57.2656H277.741V59.2672H277.99V57.2656Z" fill="#DFEBFA"/>
<path d="M289.737 57.2656H289.488V59.2672H289.737V57.2656Z" fill="#DFEBFA"/>
<path d="M189.048 57.4062H188.725V59.9994H189.048V57.4062Z" fill="#F0DBC2"/>
<path d="M222.696 84.375H220.759V87.6413H222.696V84.375Z" fill="#FFF0E2"/>
<path d="M248.065 107.922H246.128V111.188H248.065V107.922Z" fill="#FFF0E2"/>
<path d="M205.667 99.7188H203.729V102.985H205.667V99.7188Z" fill="#FFF0E2"/>
<path d="M225.979 107.445H224.042V110.712H225.979V107.445Z" fill="#FFF0E2"/>
<path d="M213.079 116.148H211.141V119.415H213.079V116.148Z" fill="#FFF0E2"/>
<path d="M264.019 88.6328H262.082V91.8992H264.019V88.6328Z" fill="#FFF0E2"/>
<path d="M256.938 116.594H255.001V119.86H256.938V116.594Z" fill="#FFF0E2"/>
<path d="M190.017 68.875H188.08V72.1414H190.017V68.875Z" fill="#FFF0E2"/>
<path d="M106.045 2.30469V195.283C106.045 195.283 108.937 197.127 116.647 196.266C124.356 195.406 127.944 201.158 135.289 199.101C142.634 197.044 180.525 2.30469 180.525 2.30469H106.046H106.045Z" fill="#F2BBAB"/>
<path d="M348.397 2.30469L346.939 201.376C346.939 201.376 332.743 203.501 324.673 198.506C318.273 194.543 305.819 202.194 299.046 200.137C292.275 198.08 279.722 2.30469 279.722 2.30469H348.395H348.397Z" fill="#F2BBAB"/>
<path d="M415.469 97.2048C415.469 97.2048 425.099 107.142 425.554 110.883C426.01 114.624 420.941 120.462 420.941 120.462L415.469 97.2031V97.2048Z" fill="#F2B28B"/>
<path d="M411.118 200.202C411.118 200.202 410.777 205.473 409.753 205.547C409.618 205.557 404.556 205.547 404.556 205.547L398.094 205.496C398.094 205.496 398.14 203.946 400.029 203.623C401.919 203.301 405.083 201.985 406.233 199.503C407.441 196.892 411.119 200.204 411.119 200.204L411.118 200.202Z" fill="#372321"/>
<path d="M425.509 200.234C425.509 200.234 425.168 205.505 424.143 205.578C424.007 205.588 418.945 205.578 418.945 205.578L412.483 205.527C412.483 205.527 412.529 203.977 414.419 203.655C416.309 203.33 419.472 202.017 420.622 199.534C421.831 196.923 425.509 200.235 425.509 200.235V200.234Z" fill="#372321"/>
<path d="M404.085 143.529C404.085 143.529 405.752 154.289 412.014 173.398C418.276 192.508 419.118 200.779 419.118 200.779L425.881 200.605C425.881 200.605 425.984 179.736 423.101 170.127C420.217 160.519 422.549 135.508 422.549 135.508L404.086 143.529H404.085Z" fill="#372321"/>
<path d="M400.811 136.047C400.811 136.047 400.536 152.256 403.31 172.167C406.084 192.077 405.111 200.525 405.111 200.525L411.86 200.763C411.86 200.763 415.938 180.86 414.803 170.896C413.668 160.931 420.4 136.723 420.4 136.723L400.811 136.049V136.047Z" fill="#4B3532"/>
<path d="M413.959 98.1409L410.358 100.48L405.164 99.5052C405.238 99.0879 405.583 97.3586 405.899 95.7906C405.919 95.6977 405.937 95.6064 405.955 95.5151C406.225 94.1819 406.459 93.036 406.459 93.036L411.318 90.9155L413.129 90.125C413.124 90.1527 412.985 91.605 412.967 91.8169C412.62 95.5803 413.959 98.1409 413.959 98.1409Z" fill="#FFB27D"/>
<path d="M406.499 96.9467C406.601 96.9043 412.762 95.1098 413.43 95.3315C414.098 95.5531 414.491 96.8424 414.491 96.8424L404.415 99.0868C404.415 99.0868 405.211 97.4846 406.499 96.9483V96.9467Z" fill="#F2B28B"/>
<path d="M422.991 138.089C421.936 142.826 404.566 143.35 400.097 139.039C399.589 138.549 399.568 136.267 399.768 133.191C400.157 127.183 401.382 118.145 401.44 113.528C401.468 111.298 401.78 109.016 402.195 106.946C403.077 102.534 404.415 99.0721 404.415 99.0721C404.415 99.0721 412.905 96.3599 414.491 96.8277C422.134 99.0802 424.044 133.352 422.991 138.089Z" fill="#FDC19C"/>
<path d="M399.767 133.2C400.157 127.192 401.382 118.155 401.439 113.537C401.467 111.307 401.78 109.025 402.194 106.955L407.3 106.07C407.3 106.07 412.246 126.366 399.767 133.2Z" fill="#F2B28B"/>
<path d="M402.55 124.827C402.55 124.827 402.895 125.655 402.163 126.21C401.431 126.764 400.956 127.664 401.122 128.322C401.287 128.981 402.887 130.056 403.444 129.885C404.001 129.714 405.132 128.849 405.011 128.501C404.89 128.154 405.778 125.458 404.426 124.415C403.074 123.374 402.55 124.826 402.55 124.826V124.827Z" fill="#FFB27D"/>
<path d="M408.316 97.875C408.316 97.875 403.336 98.791 399.358 104.6C395.379 110.409 392.76 114.728 393.487 116.826C394.213 118.924 400.856 126.209 402.004 126.213C403.152 126.216 405.006 125.388 405.116 123.518C405.116 123.518 400.442 116.515 401.369 115.468C401.765 115.022 407.467 110.433 408.275 112.513C409.611 115.954 408.317 97.875 408.317 97.875H408.316Z" fill="#FDC19C"/>
<path d="M412.601 91.8888C411.532 93.6833 407.555 95.2285 405.898 95.7973C405.918 95.7044 405.936 95.6132 405.954 95.5219C406.224 94.1886 406.458 93.0428 406.458 93.0428L411.317 90.9223C412.39 90.9109 413.043 91.1504 412.601 91.8888Z" fill="#FCA56B"/>
<path d="M404.629 92.7376C404.629 92.7376 412.442 95.1825 413.896 90.3156C415.351 85.4486 417.339 82.4871 412.411 80.7203C407.484 78.9534 405.956 80.523 405.073 82.0291C404.19 83.5351 402.633 91.9748 404.628 92.7376H404.629Z" fill="#FFB27D"/>
<path d="M405.383 81.5614C405.383 81.5614 405.869 87.2286 407.046 86.9858C408.224 86.7429 409.293 86.562 409.116 88.2701C408.94 89.9783 407.304 91.9472 410.931 92.2569C414.558 92.5666 419.795 83.2647 418.803 81.4995C415.937 76.4044 401.24 75.3465 405.383 81.563V81.5614Z" fill="#372321"/>
<path d="M348.324 0H106.044V2.31611H348.324V0Z" fill="#FF5238"/>
<path d="M348.324 16.9141H106.044V19.2302H348.324V16.9141Z" fill="#FF5238"/>
<path d="M125.391 18.6862L107.56 2.30719L108.775 0.773438L126.609 17.0123L125.391 18.6862Z" fill="#FF5238"/>
<path d="M108.775 18.8052L126.519 2.30719L125.304 0.773438L107.56 17.2714L108.775 18.8052Z" fill="#FF5238"/>
<path d="M128.136 2.30469H126.519V17.238H128.136V2.30469Z" fill="#FF5238"/>
<path d="M145.156 18.6862L127.324 2.30719L128.539 0.773438L146.374 17.0123L145.156 18.6862Z" fill="#FF5238"/>
<path d="M128.539 18.8052L146.284 2.30719L145.069 0.773438L127.324 17.2714L128.539 18.8052Z" fill="#FF5238"/>
<path d="M147.901 2.30469H146.285V17.238H147.901V2.30469Z" fill="#FF5238"/>
<path d="M164.206 18.6862L146.376 2.30719L147.591 0.773438L165.424 17.0123L164.206 18.6862Z" fill="#FF5238"/>
<path d="M147.591 18.8052L165.334 2.30719L164.119 0.773438L146.376 17.2714L147.591 18.8052Z" fill="#FF5238"/>
<path d="M166.951 2.30469H165.335V17.238H166.951V2.30469Z" fill="#FF5238"/>
<path d="M183.974 18.6862L166.143 2.30719L167.357 0.773438L185.192 17.0123L183.974 18.6862Z" fill="#FF5238"/>
<path d="M167.357 18.8052L185.102 2.30719L183.887 0.773438L166.143 17.2714L167.357 18.8052Z" fill="#FF5238"/>
<path d="M186.718 2.30481H185.102V17.2381H186.718V2.30481Z" fill="#FF5238"/>
<path d="M204.008 18.6862L186.178 2.30719L187.391 0.773438L205.226 17.0123L204.008 18.6862Z" fill="#FF5238"/>
<path d="M187.391 18.8052L205.136 2.30719L203.921 0.773438L186.178 17.2714L187.391 18.8052Z" fill="#FF5238"/>
<path d="M206.752 2.30481H205.136V17.2381H206.752V2.30481Z" fill="#FF5238"/>
<path d="M223.773 18.6862L205.941 2.30719L207.157 0.773438L224.992 17.0123L223.773 18.6862Z" fill="#FF5238"/>
<path d="M207.157 18.8052L224.902 2.30719L223.686 0.773438L205.941 17.2714L207.157 18.8052Z" fill="#FF5238"/>
<path d="M226.519 2.30481H224.902V17.2381H226.519V2.30481Z" fill="#FF5238"/>
<path d="M242.824 18.6862L224.994 2.30719L226.209 0.773438L244.042 17.0123L242.824 18.6862Z" fill="#FF5238"/>
<path d="M226.209 18.8052L243.952 2.30719L242.737 0.773438L224.994 17.2714L226.209 18.8052Z" fill="#FF5238"/>
<path d="M245.568 2.30481H243.952V17.2381H245.568V2.30481Z" fill="#FF5238"/>
<path d="M262.59 18.6862L244.758 2.30719L245.973 0.773438L263.808 17.0123L262.59 18.6862Z" fill="#FF5238"/>
<path d="M245.973 18.8052L263.718 2.30719L262.503 0.773438L244.758 17.2714L245.973 18.8052Z" fill="#FF5238"/>
<path d="M265.335 2.30481H263.719V17.2381H265.335V2.30481Z" fill="#FF5238"/>
<path d="M282.355 18.6862L264.524 2.30719L265.74 0.773438L283.575 17.0123L282.355 18.6862Z" fill="#FF5238"/>
<path d="M265.74 18.8052L283.483 2.30719L282.268 0.773438L264.524 17.2714L265.74 18.8052Z" fill="#FF5238"/>
<path d="M285.1 2.30481H283.483V17.2381H285.1V2.30481Z" fill="#FF5238"/>
<path d="M302.121 18.6862L284.291 2.30719L285.504 0.773438L303.34 17.0123L302.121 18.6862Z" fill="#FF5238"/>
<path d="M285.504 18.8052L303.25 2.30719L302.034 0.773438L284.291 17.2714L285.504 18.8052Z" fill="#FF5238"/>
<path d="M304.866 2.30469H303.25V17.238H304.866V2.30469Z" fill="#FF5238"/>
<path d="M321.171 18.6862L303.341 2.30719L304.556 0.773438L322.391 17.0123L321.171 18.6862Z" fill="#FF5238"/>
<path d="M304.556 18.8052L322.299 2.30719L321.084 0.773438L303.341 17.2714L304.556 18.8052Z" fill="#FF5238"/>
<path d="M323.916 2.30481H322.299V17.2381H323.916V2.30481Z" fill="#FF5238"/>
<path d="M340.941 18.6862L323.11 2.30719L324.324 0.773438L342.159 17.0123L340.941 18.6862Z" fill="#FF5238"/>
<path d="M324.324 18.8052L342.069 2.30719L340.854 0.773438L323.11 17.2714L324.324 18.8052Z" fill="#FF5238"/>
<path d="M343.685 2.30481H342.068V17.2381H343.685V2.30481Z" fill="#FF5238"/>
<path d="M146.847 30.2178H124.89C123.385 30.2178 122.774 29.0035 123.527 27.504L130.887 12.8543C131.64 11.3564 133.469 10.1405 134.976 10.1405H156.933C158.438 10.1405 159.049 11.3548 158.295 12.8543L150.936 27.504C150.183 29.0019 148.352 30.2178 146.847 30.2178Z" fill="#FF5238"/>
<path d="M145.771 28.397H127.795C126.562 28.397 126.062 27.4028 126.679 26.1754L132.704 14.1825C133.32 12.9552 134.82 11.9609 136.051 11.9609H154.027C155.261 11.9609 155.76 12.9552 155.143 14.1825L149.118 26.1754C148.502 27.4028 147.002 28.397 145.771 28.397Z" fill="#FFF0E2"/>
<path d="M309.376 30.2178H331.333C332.838 30.2178 333.449 29.0035 332.696 27.504L325.336 12.8543C324.583 11.3564 322.752 10.1405 321.247 10.1405H299.29C297.785 10.1405 297.175 11.3548 297.928 12.8543L305.287 27.504C306.041 29.0019 307.871 30.2178 309.376 30.2178Z" fill="#FF5238"/>
<path d="M310.454 28.397H328.43C329.663 28.397 330.162 27.4028 329.545 26.1754L323.52 14.1825C322.905 12.9552 321.404 11.9609 320.173 11.9609H302.197C300.964 11.9609 300.464 12.9552 301.082 14.1825L307.107 26.1754C307.722 27.4028 309.221 28.397 310.454 28.397Z" fill="#FFF0E2"/>
<path d="M380.606 94.1484H373.191V95.4051H380.606V94.1484Z" fill="#977763"/>
<path d="M355.077 95.9688V109.182L362.158 105.983V100.327L355.077 95.9688Z" fill="#977763"/>
<path d="M368.423 95.9688H355.077L361.75 100.327H368.423V95.9688Z" fill="#7B605D"/>
<path d="M368.423 109.179H355.077L361.75 104.82H368.423V109.179Z" fill="#7B605D"/>
<path d="M377.533 111.281H375.556V140.827H377.533V111.281Z" fill="#977763"/>
<path d="M390.562 205.584C390.753 205.605 390.922 205.561 390.88 205.25L381.381 139.148L380.063 139.991L390.215 205.277C390.251 205.497 390.416 205.566 390.562 205.582V205.584Z" fill="#977763"/>
<path d="M381.364 139.148H372.379V140.835H381.364V139.148Z" fill="#977763"/>
<path d="M385.07 170.124L385.554 170.07C386.027 170.018 386.454 170.358 386.507 170.829L386.651 172.117C386.704 172.588 386.362 173.013 385.889 173.065L385.405 173.119C384.932 173.171 384.505 172.832 384.452 172.36L384.308 171.072C384.255 170.601 384.597 170.176 385.07 170.124Z" fill="#372321"/>
<path d="M363.232 205.584C363.041 205.605 362.872 205.561 362.915 205.25L372.413 139.148L373.731 139.991L363.579 205.277C363.543 205.497 363.378 205.566 363.232 205.582V205.584Z" fill="#977763"/>
<path d="M368.377 173.155L367.897 173.102C367.427 173.05 367.085 172.627 367.138 172.157L367.282 170.876C367.334 170.406 367.759 170.068 368.231 170.12L368.711 170.173C369.182 170.225 369.522 170.648 369.469 171.117L369.326 172.398C369.273 172.868 368.848 173.206 368.376 173.154L368.377 173.155Z" fill="#372321"/>
<path d="M374.286 109.867H378.522V111.386C378.522 111.605 378.344 111.782 378.124 111.782H374.682C374.462 111.782 374.284 111.605 374.284 111.386V109.867H374.286Z" fill="#372321"/>
<path d="M364.09 97.5719H372.036V107.692H364.09C361.284 107.692 359.006 105.425 359.006 102.631C359.006 99.8375 361.284 97.5703 364.09 97.5703V97.5719Z" fill="#372321"/>
<path d="M391.252 97.3035V107.971C391.252 109.014 390.189 109.868 388.89 109.868H370.076C368.776 109.868 367.715 109.016 367.715 107.971V97.3035C367.715 96.2619 368.776 95.4062 370.076 95.4062H388.89C390.189 95.4062 391.252 96.2619 391.252 97.3035Z" fill="#977763"/>
<path d="M389.475 95.4062H383.213C382.232 95.4062 381.436 96.198 381.436 97.1747V108.1C381.436 109.077 382.232 109.868 383.213 109.868H389.475C390.457 109.868 391.252 109.077 391.252 108.1V97.1747C391.252 96.198 390.457 95.4062 389.475 95.4062Z" fill="#372321"/>
<path d="M369.393 89.7423H381.174C382.101 89.7423 382.852 90.4904 382.852 91.413V92.4773C382.852 93.3998 382.101 94.148 381.174 94.148H369.393C368.466 94.148 367.714 93.3998 367.714 92.4773V91.413C367.714 90.4904 368.466 89.7423 369.393 89.7423Z" fill="#372321"/>
<path d="M379.54 89.7422H381.483C382.239 89.7422 382.853 90.3534 382.853 91.1064V92.782C382.853 93.535 382.239 94.1462 381.483 94.1462H379.54C378.784 94.1462 378.17 93.535 378.17 92.782V91.1064C378.17 90.3534 378.784 89.7422 379.54 89.7422Z" fill="#977763"/>
<path d="M378.17 94.1484H370.755V95.4051H378.17V94.1484Z" fill="#372321"/>
<path d="M69.3461 95.3125H76.9119V94.0542H69.3461V95.3125Z" fill="#977763"/>
<path d="M95.3954 95.8672V109.094L88.1687 105.891V100.229L95.3954 95.8672Z" fill="#977763"/>
<path d="M81.7771 95.8672H95.3954L88.5863 100.229H81.7771V95.8672Z" fill="#7B605D"/>
<path d="M81.7771 109.096H95.3954L88.5863 104.734H81.7771V109.096Z" fill="#7B605D"/>
<path d="M72.4832 140.781H74.5007V111.206H72.4832V140.781Z" fill="#977763"/>
<path d="M59.187 205.594C58.9921 205.615 58.8202 205.571 58.8627 205.26L68.5541 139.094L69.8985 139.938L59.5407 205.289C59.5047 205.51 59.3344 205.578 59.187 205.594Z" fill="#977763"/>
<path d="M68.574 140.781H77.7429V139.093H68.574V140.781Z" fill="#977763"/>
<path d="M63.9599 173.059L64.4528 173.113C64.9342 173.165 65.3731 172.823 65.4255 172.353L65.5729 171.064C65.627 170.595 65.2765 170.166 64.7951 170.114L64.3021 170.06C63.8207 170.008 63.3818 170.35 63.3294 170.819L63.182 172.109C63.128 172.58 63.4784 173.007 63.9599 173.059Z" fill="#372321"/>
<path d="M87.0736 205.594C87.2685 205.615 87.4404 205.571 87.3979 205.26L77.7065 139.094L76.3621 139.938L86.7199 205.289C86.7559 205.51 86.9246 205.578 87.0736 205.594Z" fill="#977763"/>
<path d="M82.2989 173.052L81.8093 173.106C81.3295 173.158 80.8939 172.817 80.8415 172.35L80.6957 171.067C80.6417 170.599 80.9905 170.174 81.4703 170.122L81.9599 170.068C82.4398 170.016 82.8754 170.356 82.9278 170.824L83.0735 172.107C83.1275 172.575 82.7787 173 82.2989 173.052Z" fill="#372321"/>
<path d="M75.3938 111.703H71.8746C71.6535 111.703 71.4734 111.524 71.4734 111.304V109.788H75.7966V111.304C75.7966 111.524 75.6165 111.703 75.3954 111.703H75.3938Z" fill="#372321"/>
<path d="M78.0916 107.608H86.2976C89.0962 107.608 91.3873 105.329 91.3873 102.542C91.3873 99.7568 89.0979 97.4766 86.2976 97.4766H78.0916V107.608Z" fill="#372321"/>
<path d="M58.4822 97.2114V107.891C58.4822 108.935 59.5663 109.789 60.8911 109.789H80.0887C81.4152 109.789 82.4976 108.935 82.4976 107.891V97.2114C82.4976 96.1698 81.4135 95.3125 80.0887 95.3125H60.8911C59.5646 95.3125 58.4822 96.1682 58.4822 97.2114Z" fill="#977763"/>
<path d="M66.7049 109.789H60.279C59.2882 109.789 58.4842 108.989 58.4842 108.003V97.1002C58.4842 96.1141 59.2882 95.3138 60.279 95.3138H66.7049C67.6957 95.3138 68.4998 96.1141 68.4998 97.1002V108.003C68.4998 108.989 67.6957 109.789 66.7049 109.789Z" fill="#372321"/>
<path d="M68.7495 94.0547H80.8022C81.7392 94.0547 82.4988 93.2987 82.4988 92.3661V91.3344C82.4988 90.4018 81.7392 89.6458 80.8022 89.6458H68.7495C67.8125 89.6458 67.0529 90.4018 67.0529 91.3344V92.3661C67.0529 93.2987 67.8125 94.0547 68.7495 94.0547Z" fill="#372321"/>
<path d="M68.439 94.0547H70.4483C71.2135 94.0547 71.8337 93.4373 71.8337 92.6758V91.0247C71.8337 90.2631 71.2135 89.6458 70.4483 89.6458H68.439C67.6738 89.6458 67.0536 90.2631 67.0536 91.0247V92.6758C67.0536 93.4373 67.6738 94.0547 68.439 94.0547Z" fill="#977763"/>
<path d="M71.8325 95.3125H79.3982V94.0542H71.8325V95.3125Z" fill="#372321"/>
<path d="M263.576 129.596C263.576 129.596 261.098 128.306 260.339 128.515C259.579 128.725 256.505 129.944 256.12 130.5C255.519 131.366 254.443 132.753 255.138 132.825C255.832 132.896 261.871 132.634 262.559 132.508C263.247 132.384 264.798 131.561 263.576 129.596Z" fill="#FFB27D"/>
<path d="M285.795 107.664L285.768 134.751C285.768 134.751 288.976 137.576 300.614 137.558C300.904 137.558 301.199 137.558 301.502 137.553C308.175 137.465 309.829 128.732 309.939 120.714C310.034 113.877 309.004 107.561 309.004 107.561C292.932 102.53 285.799 107.665 285.799 107.665L285.795 107.664Z" fill="#FF5238"/>
<path d="M262.595 132.223C264.985 133.09 278.691 132.667 279.965 132.152C280.619 131.887 283.2 129.07 285.743 125.667H285.745C288.154 122.446 290.536 118.701 291.219 116.108C292.626 110.778 290.607 106.367 290.607 106.367C290.607 106.367 287.128 106.693 285.79 107.712C284.453 108.732 277.729 124.854 276.682 125.364C275.636 125.877 262.867 127.892 261.462 128.752C261.462 128.752 260.206 131.357 262.592 132.224L262.595 132.223Z" fill="#FF5238"/>
<path d="M293.751 106.043L293.833 106.883C293.833 106.883 293.847 109.53 297.131 109.614C300.416 109.699 302.746 108.064 302.469 106.046C302.03 104.505 301.61 103.457 301.467 102.161C301.415 101.678 301.4 101.163 301.436 100.578L295.13 101.033L293.304 101.506L293.751 106.045V106.043Z" fill="#FFB27D"/>
<path d="M293.306 101.504L293.753 106.043C294.45 106.291 295.222 106.41 296.068 106.333C298.962 106.068 301.404 101.163 301.44 100.578L293.307 101.506L293.306 101.504Z" fill="#EF9F6A"/>
<path d="M293.144 103.748C293.144 103.748 301.357 104.627 301.828 99.5266C302.3 94.4282 303.677 91.1064 298.452 90.3306C293.228 89.5548 292.027 91.4063 291.454 93.0705C290.881 94.7346 291.019 103.388 293.143 103.748H293.144Z" fill="#FFB27D"/>
<path d="M300.614 137.562C300.904 137.562 301.199 137.562 301.502 137.557C308.175 137.469 309.829 128.736 309.939 120.719C309.176 121.185 298.839 127.701 300.616 137.562H300.614Z" fill="#E5452D"/>
<path d="M305.787 129.596C305.787 129.596 303.309 128.306 302.55 128.515C301.79 128.725 298.716 129.944 298.331 130.5C297.73 131.366 296.654 132.753 297.349 132.825C298.043 132.896 304.082 132.634 304.77 132.508C305.458 132.384 307.009 131.561 305.787 129.596Z" fill="#FFB27D"/>
<path d="M306.079 106.898C306.079 106.898 311.056 107.528 313.759 110.088C316.217 112.416 323.811 124.192 326.001 128.479C326.349 129.161 325.702 130.778 325.105 131.261C323.608 132.469 320.393 133.544 312.133 132.971L304.762 132.596C304.762 132.596 303.924 129.395 305.44 128.568L317.198 127.303C317.198 127.303 309.798 120.989 308.306 119.113C306.814 117.239 306.079 106.898 306.079 106.898Z" fill="#FF5238"/>
<path d="M305.227 106.523C305.227 106.523 310.433 107.18 312.241 108.429C314.049 109.677 313.759 110.09 313.759 110.09C313.759 110.09 313.207 111.121 310.515 110.298C307.821 109.475 304.229 107.684 304.229 107.684C304.229 107.684 304.235 106.646 305.229 106.525L305.227 106.523Z" fill="#E8543D"/>
<path d="M292.731 105.532C292.731 105.532 292.493 106.298 292.038 106.441C291.583 106.585 287.077 108.257 286.437 107.96C285.797 107.664 287.356 106.066 289.783 105.736C292.21 105.405 292.731 105.532 292.731 105.532Z" fill="#E8543D"/>
<path d="M292.118 100.789C292.118 100.789 292.316 101.69 292.939 101.803C293.561 101.915 294.211 101.498 294.494 100.99L292.118 100.789Z" fill="white"/>
<path d="M300.873 88.0575C300.886 88.0461 300.896 88.0331 300.902 88.0184C300.963 87.8831 301.168 87.8929 301.168 87.8929C300.868 87.7902 300.426 87.9141 300.426 87.9141C300.436 87.9059 300.416 87.888 300.372 87.8603C300.277 87.4756 299.856 87.2328 299.856 87.2328C300.008 87.4137 300.084 87.6011 300.12 87.7413C299.196 87.3599 296.384 86.5841 294.319 87.7136C291.774 89.1055 289.542 89.4853 289.542 89.4853C289.559 89.6581 289.434 93.063 291.18 93.5193C291.191 94.2887 295.687 93.283 297.021 94.1681C298.356 95.0531 297.326 96.8085 298.8 97.2665C298.801 97.2665 298.805 97.2665 298.806 97.2681C299.165 97.379 299.555 97.2421 299.777 96.9422C300.079 96.5347 300.463 96.181 300.85 96.2869C301.677 96.5135 301.993 97.5534 301.592 97.9478C301.115 98.4172 301.423 100.978 301.423 100.978C301.423 100.978 303.054 97.5257 304.217 95.9365C305.183 94.6147 304.382 89.3631 300.874 88.0575H300.873Z" fill="#372321"/>
<path d="M332.625 135.18H257.086V205.388H332.625V135.18Z" fill="#FFA15A"/>
<path d="M334.452 132.75H252.516V136.81H334.452V132.75Z" fill="#ED7D2B"/>
<path d="M293.484 150.438L297.514 162.786H310.559L300.006 170.419L304.037 182.767L293.484 175.136L282.93 182.767L286.961 170.419L276.407 162.786H289.452L293.484 150.438Z" fill="#FFF0E2"/>
<path d="M218.47 163.27C218.47 163.27 213.941 159.032 217.393 155.66C217.393 155.66 219.969 153.703 222.232 153.595C222.232 153.595 219.625 159.254 220.712 159.671C221.8 160.089 223.16 153.158 223.16 153.158C223.16 153.158 229.369 151.877 231.491 152.625C231.491 152.625 226.603 157.57 227.76 157.709C228.918 157.847 234.245 152.936 234.245 152.936C234.245 152.936 240.191 153.297 240.265 156.876C240.339 160.455 238.446 161.766 237.552 161.767C236.658 161.767 231.271 160.361 231.237 161.093C231.203 161.826 234.573 163.847 236.764 163.723C236.764 163.723 233.138 168.685 230.261 167.676C227.384 166.667 226.925 164.625 225.135 164.033C223.345 163.441 221.89 163.599 222.681 164.315C223.47 165.03 226.64 165.466 227.803 167.078C228.964 168.69 229.966 169.754 227.089 169.635C224.212 169.516 219.387 167.95 218.929 165.611L218.47 163.272V163.27Z" fill="#DAC0A2"/>
<path d="M237.405 157.273C237.405 157.273 221.481 158.372 218.469 163.263C218.469 163.263 217.945 165.656 215.79 168.015L215.528 169.063C215.528 169.063 217.963 165.883 218.928 165.602C218.928 165.602 216.782 160.176 237.405 157.273Z" fill="#DAC0A2"/>
<path d="M215.791 168.012C215.791 168.012 212.659 170.884 212.908 175.386L213.532 175.374C213.532 175.374 214.117 170.628 215.884 168.607C217.653 166.586 215.789 168.012 215.789 168.012H215.791Z" fill="#DAC0A2"/>
<path d="M188.327 151.316C188.327 151.316 194.337 147.06 190.826 142.542C190.826 142.542 188.114 139.828 185.473 139.339C185.473 139.339 187.621 146.41 186.275 146.726C184.929 147.042 184.451 138.676 184.451 138.676C184.451 138.676 177.362 136.176 174.745 136.715C174.745 136.715 179.69 143.313 178.306 143.289C176.923 143.266 171.456 136.639 171.456 136.639C171.456 136.639 164.408 136.109 163.742 140.304C163.075 144.5 165.088 146.345 166.139 146.488C167.19 146.633 173.751 145.841 173.672 146.708C173.593 147.575 169.305 149.412 166.748 148.914C166.748 148.914 170.207 155.327 173.752 154.602C177.298 153.877 178.167 151.549 180.367 151.142C182.566 150.733 184.251 151.153 183.208 151.867C182.163 152.581 178.367 152.586 176.739 154.294C175.113 156.002 173.764 157.093 177.165 157.414C180.566 157.735 186.491 156.667 187.408 153.991L188.325 151.314L188.327 151.316Z" fill="#DAC0A2"/>
<path d="M167.036 141.236C167.036 141.236 185.579 145.081 188.327 151.314C188.327 151.314 188.556 154.21 190.706 157.328L190.845 158.601C190.845 158.601 188.499 154.473 187.41 153.988C187.41 153.988 190.811 147.953 167.036 141.234V141.236Z" fill="#DAC0A2"/>
<path d="M190.707 157.331C190.707 157.331 193.923 161.208 192.901 166.461L192.169 166.347C192.169 166.347 192.251 160.675 190.499 158.015C188.748 155.355 190.707 157.331 190.707 157.331Z" fill="#DAC0A2"/>
<path d="M205.439 149.862C205.439 149.862 195.87 148.149 197.508 140.798C197.508 140.798 199.209 136.045 202.085 133.985C202.085 133.985 203.513 143.618 205.296 143.243C207.081 142.868 202.928 132.624 202.928 132.624C202.928 132.624 209.971 125.677 213.396 124.857C213.396 124.857 211.221 135.489 212.859 134.689C214.496 133.889 217.274 122.929 217.274 122.929C217.274 122.929 225.38 118.357 228.542 122.986C231.704 127.617 230.345 130.942 229.172 131.701C228 132.461 219.732 135.185 220.315 136.176C220.898 137.167 227.048 136.958 229.816 134.935C229.816 134.935 229.312 144.517 224.674 145.636C220.036 146.754 217.686 144.464 214.832 145.207C211.978 145.95 210.206 147.393 211.853 147.66C213.502 147.927 218.032 145.81 220.935 146.938C223.839 148.066 226.063 148.612 222.19 150.897C218.315 153.182 210.648 155.221 208.042 152.543L205.439 149.865V149.862Z" fill="#DAC0A2"/>
<path d="M225.142 125.938C225.142 125.938 205.201 140.89 205.441 149.86C205.441 149.86 206.804 153.441 205.998 158.363L206.552 159.959C206.552 159.959 207.02 153.723 208.045 152.538C208.045 152.538 200.584 147.242 225.142 125.938Z" fill="#DAC0A2"/>
<path d="M205.996 158.36C205.996 158.36 204.349 164.784 208.533 170.475L209.342 169.931C209.342 169.931 206.042 163.213 206.63 159.061C207.218 154.91 205.996 158.362 205.996 158.362V158.36Z" fill="#DAC0A2"/>
<path d="M202.722 171.317C202.355 172.254 198.828 173.124 193.596 173.894C192.674 174.029 191.699 174.163 190.677 174.291C172.867 176.547 124.084 177.807 121.076 177.142C116.921 176.223 108.653 131.273 108.653 131.273C108.653 131.273 132.998 130.818 152.331 130.598C158.946 130.523 181.951 130.336 186.217 130.336C192.824 130.336 203.313 169.799 202.72 171.319L202.722 171.317Z" fill="#FFB07B"/>
<path d="M196.174 171.644C196.174 171.644 188.7 135.348 188.161 132.298C187.92 130.939 187.18 130.447 186.433 130.321C187.747 130.161 188.703 130.148 188.703 130.148C191.289 130.148 193.588 132.355 194.417 135.633C196.226 142.785 199.822 156.525 203.199 169.959C203.029 169.954 196.174 171.643 196.174 171.643V171.644Z" fill="#F99746"/>
<path d="M243.971 192.818C242.779 200.543 234.984 205.464 226.991 205.464H211.157L212.385 160.829C212.385 160.829 227.504 155.528 231.298 160.195C234.622 164.283 243.637 180.463 244.112 190.04C244.16 191.002 244.11 191.929 243.973 192.818H243.971Z" fill="#F99746"/>
<path d="M243.972 192.826C242.78 200.552 234.985 205.472 226.992 205.472H219.224C224.404 201.921 229.088 190.978 243.972 192.826Z" fill="#DB6F26"/>
<path d="M201.938 165.204C201.938 165.204 223.299 154.176 227.346 161.38C229.494 165.205 235.406 180.464 235.842 190.042C236.266 199.347 228.295 205.466 220.096 205.466H205.534L201.938 165.204Z" fill="#ED7D2B"/>
<path d="M230.082 198.904C229.846 199.082 229.602 199.256 229.355 199.429C226.269 201.566 222.246 203.266 217.643 204.32C214.164 205.116 210.355 205.543 206.371 205.512H199.447L199.354 205.513L166.579 205.521L147.792 205.526H147.514V205.518L146.86 202.314L140.913 170.001C140.913 170.001 223.238 168.258 229.933 171.849C233.041 173.516 234.805 180.422 235.782 188.033C236.303 192.084 234.097 195.889 230.083 198.904H230.082Z" fill="#FFA969"/>
<path d="M231.975 197.944C231.739 198.147 231.497 198.348 231.248 198.545C228.163 200.991 224.139 202.938 219.536 204.144C216.058 205.055 212.248 205.544 208.264 205.508H201.34L201.247 205.51L168.472 205.519L149.685 205.526L149.405 205.518L148.754 201.85C160.269 199.456 176.203 197.026 192.825 197.213C208.7 197.394 221.991 197.37 231.977 197.945L231.975 197.944Z" fill="#F99746"/>
<path d="M163.763 193.221C162.479 200.714 155.433 205.463 148.211 205.463H133.649L134.789 160.432C134.789 160.432 148.682 155.528 152.172 160.193C155.229 164.28 163.521 180.461 163.956 190.038C164.007 191.146 163.938 192.209 163.765 193.221H163.763Z" fill="#F99746"/>
<path d="M163.764 193.223C162.48 200.716 155.433 205.465 148.212 205.465H136.558C142.013 201.726 149.356 191.393 163.764 193.223Z" fill="#DB6F26"/>
<path d="M155.43 193.534C154.85 196.492 153.372 199.009 151.346 200.96C150.137 202.124 148.734 203.085 147.209 203.817C145.338 204.717 143.284 205.273 141.19 205.431C141.081 205.439 140.972 205.446 140.864 205.452C140.777 205.457 140.69 205.46 140.603 205.463C140.459 205.47 140.313 205.475 140.169 205.477C140.094 205.477 140.017 205.478 139.938 205.478H125.377V205.472C125.1 205.475 124.818 205.478 124.535 205.483C123.037 205.501 121.47 205.519 120.017 205.532C119.773 205.535 119.534 205.537 119.298 205.538C119.21 205.538 119.121 205.538 119.036 205.538C117.6 205.548 116.331 205.553 115.427 205.547C114.154 205.538 112.954 205.447 111.826 205.266C110.37 205.033 109.035 204.652 107.812 204.104C107.594 204.006 107.38 203.905 107.168 203.796C106.954 203.685 106.743 203.571 106.535 203.449C105.983 203.126 105.455 202.763 104.956 202.36C103.664 201.317 102.547 199.997 101.597 198.37C100.936 197.239 100.354 195.959 99.8516 194.522C99.2342 192.765 98.7364 190.77 98.3499 188.521C98.3401 188.463 98.3302 188.406 98.3204 188.348C98.1452 187.314 97.9945 186.227 97.8668 185.086C97.8078 184.566 97.7554 184.035 97.7063 183.492C97.5327 181.575 97.4181 179.515 97.3591 177.303C97.3542 177.111 97.3493 176.917 97.346 176.722C97.346 176.678 97.3444 176.635 97.3428 176.591C97.3067 174.834 97.3051 172.986 97.3362 171.038C97.3493 170.186 97.3706 169.315 97.3968 168.424C97.4083 168.019 97.423 167.61 97.4377 167.198C97.5114 165.128 97.6195 162.96 97.7587 160.69C97.8209 159.671 97.8897 158.631 97.965 157.57C98.2745 153.199 98.6938 148.472 99.2145 143.37C99.8041 137.579 100.484 133.53 101.473 132.61C102.932 131.25 105.975 130.703 108.09 130.483H108.092C109.405 130.346 110.36 130.336 110.36 130.336C110.408 130.336 110.453 130.336 110.501 130.337C110.534 130.337 110.568 130.339 110.601 130.341C110.681 130.344 110.761 130.35 110.842 130.357C110.886 130.36 110.932 130.365 110.976 130.37C111.005 130.373 111.035 130.377 111.064 130.381C111.108 130.386 111.153 130.393 111.197 130.401C111.275 130.412 111.354 130.427 111.431 130.443C111.483 130.455 111.537 130.466 111.592 130.479C111.596 130.479 111.601 130.481 111.605 130.483C111.642 130.492 111.682 130.5 111.721 130.512C111.795 130.53 111.867 130.551 111.939 130.574C111.988 130.59 112.037 130.605 112.086 130.621C112.12 130.632 112.153 130.646 112.188 130.657C112.592 130.804 112.98 130.998 113.345 131.236C114.6 132.05 115.589 133.369 116.074 135.002C117.764 140.684 120.782 150.843 123.921 161.47C123.936 161.524 123.952 161.578 123.969 161.63C124.149 162.24 124.329 162.853 124.511 163.465C124.529 163.527 124.547 163.589 124.565 163.651C124.574 163.682 124.583 163.713 124.592 163.746C124.769 163.666 124.953 163.583 125.143 163.498C125.149 163.495 125.154 163.492 125.162 163.488C125.916 163.151 126.767 162.781 127.686 162.404C128.162 162.209 128.655 162.01 129.166 161.814C130.604 161.259 132.155 160.706 133.727 160.233C134.425 160.021 135.127 159.824 135.825 159.651C136.721 159.427 137.611 159.236 138.478 159.096C138.507 159.091 138.532 159.086 138.553 159.083C138.656 159.066 138.758 159.052 138.859 159.035C139.47 158.946 140.069 158.879 140.648 158.843C143.608 158.66 146.061 159.259 147.183 161.262C147.602 162.012 148.166 163.197 148.803 164.693C150.121 167.785 151.759 172.2 153.108 176.81C154.449 181.388 155.504 186.157 155.679 190.009C155.735 191.242 155.645 192.419 155.425 193.534H155.43Z" fill="#ED7D2B"/>
<path d="M117.831 165.547C117.831 165.547 110.357 134.748 109.818 132.16C109.578 131.006 108.837 130.589 108.091 130.483C109.404 130.347 110.36 130.336 110.36 130.336C112.946 130.336 115.245 132.209 116.074 134.991C117.883 141.059 121.218 152.252 124.593 163.651C124.422 163.647 117.831 165.549 117.831 165.549V165.547Z" fill="#F99746"/>
<path d="M212.24 187.3C212.24 187.3 213.968 188.575 213.657 191.036L214.637 192.162L219.475 196.349L222.218 195.076C222.218 195.076 220.159 194.027 218.574 191.844C216.989 189.662 214.652 186.203 214.652 186.203L212.24 187.3Z" fill="#FFB27D"/>
<path d="M213.655 191.035C213.655 191.035 213.037 192.495 213.843 193.911C214.649 195.329 214.634 193.846 216.432 194.782C217.752 195.47 218.942 197.042 219.278 197.45C219.401 197.598 219.586 197.68 219.779 197.673L222.966 197.251C223.79 197.013 224.117 196.746 223.706 196.069C223.703 196.064 223.143 195.673 223.136 195.67C222.316 195.142 221.931 194.881 221.931 194.881C221.931 194.881 220.026 196.315 219.185 195.28C218.343 194.247 213.655 191.031 213.655 191.031V191.035Z" fill="#233862"/>
<path d="M213.977 194.134C213.977 194.134 215.985 196.413 215.985 198.147L216.583 198.17L216.367 193.68L213.979 194.134H213.977Z" fill="#233862"/>
<path d="M189.401 189.312C189.401 189.312 189.455 191.453 187.315 192.724L187.028 194.186L186.691 200.559L189.388 201.926C189.388 201.926 188.953 199.666 189.703 197.079C190.454 194.492 191.755 190.53 191.755 190.53L189.4 189.312H189.401Z" fill="#FFB27D"/>
<path d="M199.919 170.722L196.446 180.022L191.911 192.167C191.911 192.167 190.681 192.286 189.502 191.948C188.418 191.635 187.174 190.82 187.174 190.82C187.174 190.82 188.433 177.781 190.781 170.297C191.382 168.375 192.057 166.822 192.802 165.946C196.442 161.665 199.919 170.724 199.919 170.724V170.722Z" fill="#F3E8DB"/>
<path d="M196.448 180.023L191.913 192.167C191.913 192.167 190.683 192.286 189.504 191.949C188.42 191.636 187.176 190.821 187.176 190.821C187.176 190.821 188.435 177.781 190.783 170.297L196.448 180.024V180.023Z" fill="white"/>
<path d="M185.077 127.141C185.077 127.141 193.211 142.851 194.982 142.936C196.754 143.021 205.812 139.388 205.812 139.388L206.143 141.36C206.143 141.36 196.568 149.249 194.912 148.936C190.88 148.175 185.388 140.288 185.388 140.288L185.075 127.141H185.077Z" fill="#FFB27D"/>
<path d="M186.391 136.393C186.391 137.95 186.351 139.073 186.351 139.073C186.345 139.425 186.314 139.762 186.25 140.072C183.382 153.837 186.692 156.8 185.146 158.133C183.6 159.468 181.394 157.501 176.539 159.592C175.9 159.866 175.214 160.167 174.5 160.474C171.646 161.698 168.341 163.025 165.962 163.3C164.401 163.483 163.238 163.214 162.858 162.164C162.076 160.003 164.511 155.305 165.521 150.787C165.935 148.932 166.111 147.105 165.726 145.498C165.642 145.149 165.605 144.763 165.605 144.343C165.605 144.255 165.605 144.168 165.609 144.079C165.609 144.079 164.953 130.042 165.891 127.862C166.793 125.766 174.04 124.878 174.59 124.813C174.605 124.805 174.618 124.803 174.626 124.806L181.001 125.362C181.001 125.362 183.41 126.097 185.079 127.136C186.211 127.841 186.392 133.093 186.392 136.392L186.391 136.393Z" fill="white"/>
<path d="M181.195 126.148C181.242 126.592 178.987 127.54 177.199 127.201C175.517 126.882 174.423 125.549 174.112 124.91C173.803 124.271 175.109 123.674 174.772 119.578L175.091 119.616L180.473 120.248C180.473 120.248 180.482 121.917 180.602 123.482C180.702 124.795 181.157 125.821 181.193 126.152L181.195 126.148Z" fill="#FFB27D"/>
<path d="M180.474 120.242C180.474 120.242 180.484 121.911 180.603 123.476C177.631 123.624 175.852 121.052 175.093 119.609L180.474 120.242Z" fill="#ED975D"/>
<path d="M174.316 118.921C174.316 118.921 171.748 120.225 170.691 114.659C170.406 113.166 169.577 107.685 175.214 107.204C175.214 107.204 176.835 106.994 178.558 107.651C179.928 108.174 182.037 109.497 181.225 114.654L181.101 116.362L174.316 118.921Z" fill="#372321"/>
<path d="M181.875 121.27C181.875 121.27 174.976 122.662 174.172 118.372C173.368 114.082 171.935 111.373 176.305 110.304C180.676 109.235 181.842 110.712 182.46 112.077C183.079 113.443 183.648 120.798 181.875 121.27Z" fill="#FFB27D"/>
<path d="M179.435 109.618C179.435 109.618 178.479 115.002 175.71 116.283C172.941 117.564 172.047 116.304 172.047 116.304C172.047 116.304 173.435 114.847 173.326 111.683C173.326 111.683 177.559 107.488 179.435 109.62V109.618Z" fill="#372321"/>
<path d="M179.042 110.113C179.042 110.113 180.667 110.975 181.215 112.003C181.764 113.032 182.339 115.253 182.982 115.055C182.982 115.055 183.772 111.369 181.807 109.731C179.724 107.994 179.041 110.113 179.041 110.113H179.042Z" fill="#372321"/>
<path d="M184.708 155.372C184.708 155.372 188.553 154.992 189.283 155.372C190.014 155.753 191.021 156.721 190.986 157.137C190.952 157.553 184.708 157.282 184.708 157.282V155.372Z" fill="#FFB27D"/>
<path d="M168.252 162.051C168.252 162.051 191.257 154.309 196.388 155.957C201.518 157.605 216.923 188.108 216.923 188.108C216.923 188.108 216.576 188.568 215.626 188.923C214.744 189.253 212.607 189.231 212.607 189.231C212.607 189.231 198.705 177.371 197.049 173.912C195.394 170.453 194.732 167.157 193.077 167.487C192.066 167.687 184.248 172.478 177.247 172.478C174.526 172.478 167.112 172.478 167.112 172.478C162.732 167.783 163.958 160.34 163.958 160.34L168.252 162.049V162.051Z" fill="white"/>
<path d="M206.144 141.362C206.144 141.362 209.53 142.66 210.261 142.348C210.991 142.037 213.336 140.583 213.336 140.169C213.336 139.755 210.419 140.481 209.74 140.169C209.06 139.858 207.134 138.872 205.813 139.39C204.493 139.908 206.144 141.362 206.144 141.362Z" fill="#FFB27D"/>
<path d="M206.628 139.242C206.628 139.242 208.716 138.975 209.319 138.768C209.921 138.561 209.764 138.75 209.635 139.006C209.504 139.262 208.192 139.832 208.192 139.832L206.628 139.242Z" fill="#FFB27D"/>
<path d="M179.435 119.034C179.435 119.034 180.148 119.541 180.582 119.541C181.016 119.541 181.815 119.432 181.903 119.287C181.99 119.143 182.182 118.468 182.182 118.468C182.182 118.468 180.739 118.353 179.435 119.034Z" fill="white"/>
<path d="M185.077 127.141C185.077 127.141 186.498 128.127 187.848 130.41C189.197 132.694 192.954 140.817 192.954 140.817C192.954 140.817 194.672 145.72 187.204 148.158L183.253 143.591L185.077 127.141Z" fill="white"/>
<path d="M164.465 130.379C164.465 130.379 167.122 151.497 169.617 153.573C172.111 155.65 184.707 157.283 184.707 157.283V155.372C184.707 155.372 173.503 149.63 173.293 148.869C173.085 148.108 173.259 121.579 164.465 130.381V130.379Z" fill="#FFB27D"/>
<path d="M165.89 127.865C165.89 127.865 164.113 128.488 163.802 132.535C163.491 136.582 163.802 151.529 163.802 151.529C163.802 151.529 167.975 153.051 173.294 148.865C173.294 148.865 173.398 128.072 172.46 127.865C171.522 127.658 165.89 127.865 165.89 127.865Z" fill="white"/>
<path d="M173.287 109.006C173.287 109.006 170.374 106.189 167.141 107.167C163.909 108.145 162.746 122.399 162.746 125.983C162.746 129.05 163.743 129.67 169.191 130.666C172.598 131.288 173.346 133.456 173.428 134.996C173.487 136.1 174.374 136.991 175.48 137.083C177.17 137.221 179.351 136.855 180.172 134.335C181.544 130.115 180.723 124.332 175.092 123.422C169.46 122.511 169.226 106.382 172.562 110.742L173.285 109.009L173.287 109.006Z" fill="#372321"/>
<path d="M187.314 192.72C187.314 192.72 185.778 193.134 185.153 194.639C184.527 196.143 185.691 195.219 186.057 197.206C186.325 198.665 185.813 200.568 185.696 201.082C185.654 201.269 185.703 201.465 185.827 201.612L188.123 203.851C188.819 204.351 189.232 204.443 189.513 203.704C189.515 203.698 189.479 203.018 189.479 203.012C189.392 202.043 189.361 201.581 189.361 201.581C189.361 201.581 187.054 200.969 187.353 199.672C187.653 198.375 187.313 192.719 187.313 192.719L187.314 192.72Z" fill="#233862"/>
<path d="M185.061 194.883C185.061 194.883 184.493 197.861 183.119 198.928L183.469 199.411L186.89 196.477L185.061 194.883Z" fill="#233862"/>
<path d="M42.3435 200.105C42.3435 200.105 42.6907 205.484 43.7355 205.559C43.8747 205.569 49.0397 205.559 49.0397 205.559L55.6327 205.507C55.6327 205.507 55.5868 203.926 53.6577 203.595C51.7303 203.264 48.5009 201.924 47.3284 199.391C46.0936 196.726 42.3435 200.105 42.3435 200.105Z" fill="#163560"/>
<path d="M27.6587 200.127C27.6587 200.127 28.0059 205.506 29.0507 205.581C29.1899 205.59 34.3549 205.581 34.3549 205.581L40.9478 205.528C40.9478 205.528 40.902 203.947 38.9729 203.618C37.0454 203.287 33.8161 201.947 32.6436 199.415C31.4088 196.75 27.6587 200.128 27.6587 200.128V200.127Z" fill="#163560"/>
<path d="M49.5201 142.264C49.5201 142.264 47.8203 153.244 41.4304 172.743C35.0404 192.242 34.1823 200.681 34.1823 200.681L27.2815 200.504C27.2815 200.504 27.1767 179.209 30.1194 169.403C33.0622 159.598 30.6828 134.078 30.6828 134.078L49.5218 142.264H49.5201Z" fill="#372321"/>
<path d="M52.8594 134.634C52.8594 134.634 53.1395 151.175 50.308 171.49C47.4766 191.805 48.4707 200.424 48.4707 200.424L41.5845 200.667C41.5845 200.667 37.425 180.358 38.5828 170.191C39.7406 160.024 32.8708 135.321 32.8708 135.321L52.8594 134.633V134.634Z" fill="#4B3532"/>
<path d="M39.4451 95.954L43.1198 98.3402L48.4208 97.3443C48.3471 96.9189 47.9917 95.1537 47.6707 93.5547C47.6511 93.4602 47.6314 93.3657 47.6134 93.2744C47.3367 91.9134 47.0992 90.7448 47.0992 90.7448L42.1422 88.5802L40.2933 87.7734C40.2983 87.8028 40.4391 89.2844 40.4587 89.4995C40.8141 93.3396 39.4451 95.9523 39.4451 95.9523V95.954Z" fill="#FFB27D"/>
<path d="M47.0564 94.7311C46.9532 94.6887 40.6665 92.8567 39.9836 93.0816C39.3023 93.3082 38.9011 94.6235 38.9011 94.6235L49.1836 96.9136C49.1836 96.9136 48.3714 95.2788 47.0564 94.7311Z" fill="#CF90BB"/>
<path d="M30.2277 136.72C31.3036 141.553 49.029 142.089 53.5881 137.69C54.1072 137.188 54.1269 134.86 53.9238 131.723C53.5275 125.591 52.2764 116.371 52.2174 111.659C52.1896 109.383 51.8702 107.056 51.4461 104.943C50.5454 100.44 49.1813 96.9079 49.1813 96.9079C49.1813 96.9079 40.5184 94.1403 38.8988 94.6179C31.1005 96.9161 29.1518 131.888 30.2277 136.72Z" fill="#DDA7CC"/>
<path d="M53.9247 131.722C53.5284 125.59 52.2773 116.369 52.2183 111.657C52.1905 109.382 51.8712 107.054 51.447 104.942L46.2378 104.039C46.2378 104.039 41.1907 124.749 53.9247 131.723V131.722Z" fill="#CF90BB"/>
<path d="M40.83 89.5647C41.9223 91.3967 45.9786 92.9729 47.6703 93.5531C47.6506 93.4586 47.631 93.364 47.613 93.2728C47.3362 91.9118 47.0988 90.7431 47.0988 90.7431L42.1417 88.5786C41.0478 88.5656 40.3813 88.8117 40.8317 89.5647H40.83Z" fill="#FCA56B"/>
<path d="M48.9643 90.4435C48.9643 90.4435 40.9924 92.9373 39.5071 87.9725C38.0234 83.0062 35.9945 79.9843 41.0219 78.1816C46.0493 76.379 47.61 77.9795 48.5107 79.5165C49.4113 81.0536 50.9998 89.666 48.9643 90.4419V90.4435Z" fill="#FFB27D"/>
<path d="M48.1943 79.0392C48.1943 79.0392 47.6981 84.8222 46.4961 84.5744C45.2941 84.3267 44.2035 84.1425 44.3836 85.8849C44.5637 87.6272 46.2341 89.6369 42.5315 89.9531C38.8305 90.2693 33.487 80.7767 34.499 78.9757C37.4221 73.7779 52.4209 72.6972 48.1927 79.0408L48.1943 79.0392Z" fill="#372321"/>
<path d="M72.2781 111.426C72.2781 111.426 75.794 106.083 76.0118 107.002C76.2296 107.921 75.4108 109.656 76.0118 109.39C76.6128 109.124 78.8629 106.256 79.1855 106.684C79.5081 107.111 79.1806 111.137 78.4699 111.843C77.7591 112.549 73.5882 113.81 73.5882 113.81L72.2781 111.426Z" fill="#FFB27D"/>
<path d="M42.8718 105.701C42.8718 105.701 52.7531 122.442 58.7271 121.862C64.7011 121.281 74.5005 114.788 74.5005 114.788C74.5005 114.788 74.3711 113.595 73.8438 112.689C73.4803 112.063 72.2783 111.419 72.2783 111.419C72.2783 111.419 59.7277 114.465 58.5715 112.724C57.4154 110.984 52.4076 97.4228 49.1832 96.911C45.9603 96.3992 42.8718 105.701 42.8718 105.701Z" fill="#DDA7CC"/>
</svg>
